<svg width="190" height="102" viewBox="0 0 190 102" fill="none" xmlns="http://www.w3.org/2000/svg">
<g filter="url(#filter0_d_356_129)">
<path d="M5 0H185V82C185 87.5228 180.523 92 175 92H15C9.47716 92 5 87.5228 5 82V0Z" fill="#E2D784"/>
<path fill-rule="evenodd" clip-rule="evenodd" d="M30 21C27.2386 21 25 23.2386 25 26V71H55C66.0457 71 75 62.0457 75 51V31C75 25.4772 70.5228 21 65 21H30ZM33 24C30.2386 24 28 26.2386 28 29V68H52C63.0457 68 72 59.0457 72 48V34C72 28.4772 67.5228 24 62 24H33Z" fill="#F5F5F5"/>
<path d="M34 35C34 32.2386 36.2386 30 39 30H56C61.5228 30 66 34.4772 66 40V42C66 53.0457 57.0457 62 46 62H34V35Z" fill="#F5F5F5"/>
<path d="M86.258 39V26.93H90.644C91.9587 26.93 93.058 27.202 93.942 27.746C94.826 28.2787 95.489 29.004 95.931 29.922C96.373 30.8287 96.594 31.8373 96.594 32.948C96.594 34.172 96.3503 35.2373 95.863 36.144C95.3757 37.0507 94.6843 37.7533 93.789 38.252C92.905 38.7507 91.8567 39 90.644 39H86.258ZM94.231 32.948C94.231 32.166 94.0893 31.4803 93.806 30.891C93.5227 30.2903 93.1147 29.8257 92.582 29.497C92.0493 29.157 91.4033 28.987 90.644 28.987H88.604V36.943H90.644C91.4147 36.943 92.0663 36.773 92.599 36.433C93.1317 36.0817 93.534 35.6057 93.806 35.005C94.0893 34.393 94.231 33.7073 94.231 32.948ZM107.097 39V26.93H109.443V39H107.097ZM123.912 26.93H126.292L130.729 39H128.315L127.193 35.991H122.977L121.872 39H119.458L123.912 26.93ZM126.768 34.342L125.102 29.361L123.368 34.342H126.768ZM140.723 39V26.93H146.061C146.616 26.93 147.126 27.0433 147.591 27.27C148.067 27.4967 148.475 27.8027 148.815 28.188C149.166 28.5733 149.433 29.004 149.614 29.48C149.807 29.956 149.903 30.4433 149.903 30.942C149.903 31.452 149.812 31.945 149.631 32.421C149.461 32.8857 149.212 33.2937 148.883 33.645C148.554 33.9963 148.169 34.2683 147.727 34.461L150.481 39H147.897L145.415 34.954H143.069V39H140.723ZM143.069 32.897H146.01C146.305 32.897 146.565 32.812 146.792 32.642C147.019 32.4607 147.2 32.2227 147.336 31.928C147.472 31.6333 147.54 31.3047 147.54 30.942C147.54 30.5567 147.461 30.2223 147.302 29.939C147.143 29.6443 146.939 29.412 146.69 29.242C146.452 29.072 146.191 28.987 145.908 28.987H143.069V32.897ZM163.98 26.93H166.36L170.797 39H168.383L167.261 35.991H163.045L161.94 39H159.526L163.98 26.93ZM166.836 34.342L165.17 29.361L163.436 34.342H166.836Z" fill="#F5F5F5"/>
<path d="M85.396 51.2C85.396 50.808 85.508 50.472 85.732 50.192C85.956 49.904 86.264 49.684 86.656 49.532C87.056 49.372 87.516 49.292 88.036 49.292C88.34 49.292 88.656 49.316 88.984 49.364C89.312 49.412 89.604 49.484 89.86 49.58V49.052C89.86 48.524 89.704 48.104 89.392 47.792C89.08 47.48 88.648 47.324 88.096 47.324C87.76 47.324 87.428 47.388 87.1 47.516C86.78 47.636 86.444 47.816 86.092 48.056L85.78 47.48C86.188 47.2 86.588 46.992 86.98 46.856C87.372 46.712 87.772 46.64 88.18 46.64C88.948 46.64 89.556 46.86 90.004 47.3C90.452 47.74 90.676 48.348 90.676 49.124V52.016C90.676 52.128 90.7 52.212 90.748 52.268C90.796 52.316 90.872 52.344 90.976 52.352V53C90.888 53.008 90.812 53.016 90.748 53.024C90.684 53.032 90.636 53.032 90.604 53.024C90.404 53.016 90.252 52.952 90.148 52.832C90.044 52.712 89.988 52.584 89.98 52.448L89.968 51.992C89.688 52.352 89.324 52.632 88.876 52.832C88.428 53.024 87.972 53.12 87.508 53.12C87.108 53.12 86.744 53.036 86.416 52.868C86.096 52.692 85.844 52.46 85.66 52.172C85.484 51.876 85.396 51.552 85.396 51.2ZM89.584 51.68C89.672 51.568 89.74 51.46 89.788 51.356C89.836 51.252 89.86 51.16 89.86 51.08V50.168C89.588 50.064 89.304 49.984 89.008 49.928C88.72 49.872 88.428 49.844 88.132 49.844C87.548 49.844 87.076 49.96 86.716 50.192C86.356 50.424 86.176 50.74 86.176 51.14C86.176 51.372 86.236 51.592 86.356 51.8C86.476 52 86.652 52.168 86.884 52.304C87.116 52.432 87.388 52.496 87.7 52.496C88.092 52.496 88.456 52.42 88.792 52.268C89.136 52.116 89.4 51.92 89.584 51.68ZM95.5591 47.468C95.0151 47.484 94.5351 47.636 94.1191 47.924C93.7111 48.212 93.4231 48.608 93.2551 49.112V53H92.4391V46.748H93.2071V48.248C93.4231 47.808 93.7071 47.452 94.0591 47.18C94.4191 46.908 94.7991 46.756 95.1991 46.724C95.2791 46.716 95.3471 46.712 95.4031 46.712C95.4671 46.712 95.5191 46.716 95.5591 46.724V47.468ZM99.1589 53.12C98.7029 53.12 98.2829 53.036 97.8989 52.868C97.5229 52.692 97.1909 52.452 96.9029 52.148C96.6229 51.844 96.4029 51.496 96.2429 51.104C96.0909 50.712 96.0149 50.296 96.0149 49.856C96.0149 49.264 96.1469 48.724 96.4109 48.236C96.6749 47.748 97.0429 47.36 97.5149 47.072C97.9869 46.784 98.5309 46.64 99.1469 46.64C99.7309 46.64 100.247 46.776 100.695 47.048C101.143 47.312 101.475 47.672 101.691 48.128L100.899 48.38C100.723 48.06 100.475 47.812 100.155 47.636C99.8429 47.452 99.4949 47.36 99.1109 47.36C98.6949 47.36 98.3149 47.468 97.9709 47.684C97.6269 47.9 97.3509 48.196 97.1429 48.572C96.9429 48.948 96.8429 49.376 96.8429 49.856C96.8429 50.328 96.9469 50.756 97.1549 51.14C97.3629 51.524 97.6389 51.832 97.9829 52.064C98.3269 52.288 98.7069 52.4 99.1229 52.4C99.3949 52.4 99.6549 52.352 99.9029 52.256C100.159 52.16 100.379 52.032 100.563 51.872C100.755 51.704 100.883 51.524 100.947 51.332L101.751 51.572C101.639 51.868 101.451 52.136 101.187 52.376C100.931 52.608 100.627 52.792 100.275 52.928C99.9309 53.056 99.5589 53.12 99.1589 53.12ZM108.289 53H107.473V49.508C107.473 48.804 107.349 48.276 107.101 47.924C106.853 47.564 106.497 47.384 106.033 47.384C105.729 47.384 105.425 47.464 105.121 47.624C104.825 47.776 104.561 47.988 104.329 48.26C104.105 48.524 103.945 48.828 103.849 49.172V53H103.033V44.24H103.849V48.164C104.097 47.7 104.441 47.332 104.881 47.06C105.329 46.78 105.805 46.64 106.309 46.64C106.669 46.64 106.973 46.704 107.221 46.832C107.477 46.96 107.681 47.148 107.833 47.396C107.993 47.636 108.109 47.92 108.181 48.248C108.253 48.568 108.289 48.932 108.289 49.34V53ZM110.029 53V46.748H110.845V53H110.029ZM110.029 45.44V44.24H110.845V45.44H110.029ZM115.642 52.7C115.578 52.724 115.478 52.768 115.342 52.832C115.206 52.896 115.042 52.952 114.85 53C114.658 53.048 114.45 53.072 114.226 53.072C113.994 53.072 113.774 53.028 113.566 52.94C113.366 52.852 113.206 52.72 113.086 52.544C112.966 52.36 112.906 52.136 112.906 51.872V47.396H112.042V46.748H112.906V44.636H113.722V46.748H115.162V47.396H113.722V51.644C113.738 51.868 113.818 52.036 113.962 52.148C114.114 52.26 114.286 52.316 114.478 52.316C114.702 52.316 114.906 52.28 115.09 52.208C115.274 52.128 115.386 52.072 115.426 52.04L115.642 52.7ZM119.256 53.12C118.808 53.12 118.392 53.036 118.008 52.868C117.624 52.692 117.292 52.456 117.012 52.16C116.732 51.856 116.512 51.508 116.352 51.116C116.2 50.724 116.124 50.304 116.124 49.856C116.124 49.272 116.256 48.736 116.52 48.248C116.792 47.76 117.164 47.372 117.636 47.084C118.108 46.788 118.644 46.64 119.244 46.64C119.86 46.64 120.396 46.788 120.852 47.084C121.316 47.38 121.68 47.772 121.944 48.26C122.208 48.74 122.34 49.268 122.34 49.844C122.34 49.908 122.34 49.972 122.34 50.036C122.34 50.092 122.336 50.136 122.328 50.168H116.976C117.016 50.616 117.14 51.016 117.348 51.368C117.564 51.712 117.84 51.988 118.176 52.196C118.52 52.396 118.892 52.496 119.292 52.496C119.7 52.496 120.084 52.392 120.444 52.184C120.812 51.976 121.068 51.704 121.212 51.368L121.92 51.56C121.792 51.856 121.596 52.124 121.332 52.364C121.068 52.604 120.756 52.792 120.396 52.928C120.044 53.056 119.664 53.12 119.256 53.12ZM116.952 49.58H121.572C121.54 49.124 121.416 48.724 121.2 48.38C120.992 48.036 120.716 47.768 120.372 47.576C120.036 47.376 119.664 47.276 119.256 47.276C118.848 47.276 118.476 47.376 118.14 47.576C117.804 47.768 117.528 48.04 117.312 48.392C117.104 48.736 116.984 49.132 116.952 49.58ZM126.311 53.12C125.855 53.12 125.435 53.036 125.051 52.868C124.675 52.692 124.343 52.452 124.055 52.148C123.775 51.844 123.555 51.496 123.395 51.104C123.243 50.712 123.167 50.296 123.167 49.856C123.167 49.264 123.299 48.724 123.563 48.236C123.827 47.748 124.195 47.36 124.667 47.072C125.139 46.784 125.683 46.64 126.299 46.64C126.883 46.64 127.399 46.776 127.847 47.048C128.295 47.312 128.627 47.672 128.843 48.128L128.051 48.38C127.875 48.06 127.627 47.812 127.307 47.636C126.995 47.452 126.647 47.36 126.263 47.36C125.847 47.36 125.467 47.468 125.123 47.684C124.779 47.9 124.503 48.196 124.295 48.572C124.095 48.948 123.995 49.376 123.995 49.856C123.995 50.328 124.099 50.756 124.307 51.14C124.515 51.524 124.791 51.832 125.135 52.064C125.479 52.288 125.859 52.4 126.275 52.4C126.547 52.4 126.807 52.352 127.055 52.256C127.311 52.16 127.531 52.032 127.715 51.872C127.907 51.704 128.035 51.524 128.099 51.332L128.903 51.572C128.791 51.868 128.603 52.136 128.339 52.376C128.083 52.608 127.779 52.792 127.427 52.928C127.083 53.056 126.711 53.12 126.311 53.12ZM135.441 53H134.625V49.508C134.625 48.804 134.501 48.276 134.253 47.924C134.005 47.564 133.649 47.384 133.185 47.384C132.881 47.384 132.577 47.464 132.273 47.624C131.977 47.776 131.713 47.988 131.481 48.26C131.257 48.524 131.097 48.828 131.001 49.172V53H130.185V44.24H131.001V48.164C131.249 47.7 131.593 47.332 132.033 47.06C132.481 46.78 132.957 46.64 133.461 46.64C133.821 46.64 134.125 46.704 134.373 46.832C134.629 46.96 134.833 47.148 134.985 47.396C135.145 47.636 135.261 47.92 135.333 48.248C135.405 48.568 135.441 48.932 135.441 49.34V53ZM140.123 52.7C140.059 52.724 139.959 52.768 139.823 52.832C139.687 52.896 139.523 52.952 139.331 53C139.139 53.048 138.931 53.072 138.707 53.072C138.475 53.072 138.255 53.028 138.047 52.94C137.847 52.852 137.687 52.72 137.567 52.544C137.447 52.36 137.387 52.136 137.387 51.872V47.396H136.523V46.748H137.387V44.636H138.203V46.748H139.643V47.396H138.203V51.644C138.219 51.868 138.299 52.036 138.443 52.148C138.595 52.26 138.767 52.316 138.959 52.316C139.183 52.316 139.387 52.28 139.571 52.208C139.755 52.128 139.867 52.072 139.907 52.04L140.123 52.7ZM141.082 50.42V46.748H141.898V50.276C141.898 50.988 142.018 51.52 142.258 51.872C142.506 52.224 142.87 52.4 143.35 52.4C143.67 52.4 143.978 52.332 144.274 52.196C144.578 52.052 144.846 51.852 145.078 51.596C145.31 51.332 145.486 51.028 145.606 50.684V46.748H146.422V52.016C146.422 52.128 146.446 52.212 146.494 52.268C146.542 52.316 146.614 52.344 146.71 52.352V53C146.614 53.008 146.538 53.012 146.482 53.012C146.426 53.02 146.374 53.024 146.326 53.024C146.166 53.008 146.026 52.944 145.906 52.832C145.794 52.72 145.734 52.584 145.726 52.424L145.702 51.584C145.43 52.064 145.058 52.44 144.586 52.712C144.122 52.984 143.618 53.12 143.074 53.12C142.418 53.12 141.922 52.892 141.586 52.436C141.25 51.98 141.082 51.308 141.082 50.42ZM150.967 53.12C150.519 53.12 150.103 53.036 149.719 52.868C149.335 52.692 149.003 52.456 148.723 52.16C148.443 51.856 148.223 51.508 148.063 51.116C147.911 50.724 147.835 50.304 147.835 49.856C147.835 49.272 147.967 48.736 148.231 48.248C148.503 47.76 148.875 47.372 149.347 47.084C149.819 46.788 150.355 46.64 150.955 46.64C151.571 46.64 152.107 46.788 152.563 47.084C153.027 47.38 153.391 47.772 153.655 48.26C153.919 48.74 154.051 49.268 154.051 49.844C154.051 49.908 154.051 49.972 154.051 50.036C154.051 50.092 154.047 50.136 154.039 50.168H148.687C148.727 50.616 148.851 51.016 149.059 51.368C149.275 51.712 149.551 51.988 149.887 52.196C150.231 52.396 150.603 52.496 151.003 52.496C151.411 52.496 151.795 52.392 152.155 52.184C152.523 51.976 152.779 51.704 152.923 51.368L153.631 51.56C153.503 51.856 153.307 52.124 153.043 52.364C152.779 52.604 152.467 52.792 152.107 52.928C151.755 53.056 151.375 53.12 150.967 53.12ZM148.663 49.58H153.283C153.251 49.124 153.127 48.724 152.911 48.38C152.703 48.036 152.427 47.768 152.083 47.576C151.747 47.376 151.375 47.276 150.967 47.276C150.559 47.276 150.187 47.376 149.851 47.576C149.515 47.768 149.239 48.04 149.023 48.392C148.815 48.736 148.695 49.132 148.663 49.58ZM91.852 65L87.604 60.524C87.26 60.156 86.984 59.844 86.776 59.588C86.568 59.324 86.42 59.088 86.332 58.88C86.244 58.664 86.2 58.452 86.2 58.244C86.2 57.892 86.292 57.576 86.476 57.296C86.668 57.016 86.924 56.792 87.244 56.624C87.572 56.456 87.936 56.372 88.336 56.372C88.712 56.372 89.048 56.444 89.344 56.588C89.648 56.724 89.888 56.92 90.064 57.176C90.24 57.424 90.328 57.716 90.328 58.052C90.328 58.412 90.224 58.736 90.016 59.024C89.816 59.304 89.552 59.568 89.224 59.816C88.904 60.056 88.548 60.3 88.156 60.548C87.828 60.772 87.524 61 87.244 61.232C86.972 61.456 86.756 61.696 86.596 61.952C86.436 62.208 86.356 62.5 86.356 62.828C86.356 63.18 86.456 63.48 86.656 63.728C86.856 63.968 87.108 64.152 87.412 64.28C87.724 64.4 88.044 64.46 88.372 64.46C88.804 64.46 89.2 64.364 89.56 64.172C89.928 63.972 90.248 63.7 90.52 63.356C90.792 63.004 91 62.604 91.144 62.156C91.296 61.708 91.372 61.232 91.372 60.728H92.068C92.068 61.336 91.972 61.908 91.78 62.444C91.588 62.972 91.32 63.436 90.976 63.836C90.64 64.236 90.24 64.552 89.776 64.784C89.32 65.008 88.824 65.12 88.288 65.12C87.792 65.12 87.336 65.024 86.92 64.832C86.504 64.632 86.172 64.36 85.924 64.016C85.684 63.672 85.564 63.268 85.564 62.804C85.564 62.372 85.664 61.996 85.864 61.676C86.072 61.348 86.336 61.056 86.656 60.8C86.984 60.536 87.328 60.288 87.688 60.056C88.056 59.816 88.38 59.596 88.66 59.396C88.948 59.188 89.172 58.98 89.332 58.772C89.492 58.556 89.572 58.324 89.572 58.076C89.572 57.764 89.456 57.508 89.224 57.308C88.992 57.108 88.696 57.008 88.336 57.008C88.072 57.008 87.836 57.064 87.628 57.176C87.42 57.288 87.256 57.436 87.136 57.62C87.016 57.804 86.956 58.004 86.956 58.22C86.956 58.356 86.988 58.5 87.052 58.652C87.116 58.796 87.24 58.98 87.424 59.204C87.608 59.42 87.872 59.708 88.216 60.068L92.932 65H91.852ZM96.5425 61.892C96.5425 61.3 96.6625 60.76 96.9025 60.272C97.1505 59.776 97.4905 59.38 97.9225 59.084C98.3545 58.788 98.8465 58.64 99.3985 58.64C99.9185 58.64 100.383 58.78 100.791 59.06C101.207 59.332 101.531 59.664 101.763 60.056V56.24H102.579V64.016C102.579 64.128 102.603 64.212 102.651 64.268C102.699 64.316 102.771 64.344 102.867 64.352V65C102.707 65.024 102.583 65.032 102.495 65.024C102.327 65.016 102.179 64.948 102.051 64.82C101.923 64.692 101.859 64.552 101.859 64.4V63.788C101.611 64.196 101.275 64.52 100.851 64.76C100.427 65 99.9865 65.12 99.5305 65.12C99.0985 65.12 98.6985 65.032 98.3305 64.856C97.9705 64.68 97.6545 64.44 97.3825 64.136C97.1185 63.832 96.9105 63.488 96.7585 63.104C96.6145 62.712 96.5425 62.308 96.5425 61.892ZM101.763 62.852V60.92C101.659 60.632 101.491 60.372 101.259 60.14C101.027 59.9 100.763 59.712 100.467 59.576C100.179 59.432 99.8905 59.36 99.6025 59.36C99.2665 59.36 98.9625 59.432 98.6905 59.576C98.4185 59.712 98.1825 59.9 97.9825 60.14C97.7905 60.38 97.6425 60.652 97.5385 60.956C97.4345 61.26 97.3825 61.572 97.3825 61.892C97.3825 62.228 97.4385 62.548 97.5505 62.852C97.6705 63.156 97.8385 63.428 98.0545 63.668C98.2705 63.9 98.5185 64.08 98.7985 64.208C99.0785 64.336 99.3825 64.4 99.7105 64.4C99.9185 64.4 100.135 64.36 100.359 64.28C100.583 64.2 100.795 64.092 100.995 63.956C101.203 63.812 101.375 63.644 101.511 63.452C101.647 63.26 101.731 63.06 101.763 62.852ZM107.127 65.12C106.679 65.12 106.263 65.036 105.879 64.868C105.495 64.692 105.163 64.456 104.883 64.16C104.603 63.856 104.383 63.508 104.223 63.116C104.071 62.724 103.995 62.304 103.995 61.856C103.995 61.272 104.127 60.736 104.391 60.248C104.663 59.76 105.035 59.372 105.507 59.084C105.979 58.788 106.515 58.64 107.115 58.64C107.731 58.64 108.267 58.788 108.723 59.084C109.187 59.38 109.551 59.772 109.815 60.26C110.079 60.74 110.211 61.268 110.211 61.844C110.211 61.908 110.211 61.972 110.211 62.036C110.211 62.092 110.207 62.136 110.199 62.168H104.847C104.887 62.616 105.011 63.016 105.219 63.368C105.435 63.712 105.711 63.988 106.047 64.196C106.391 64.396 106.763 64.496 107.163 64.496C107.571 64.496 107.955 64.392 108.315 64.184C108.683 63.976 108.939 63.704 109.083 63.368L109.791 63.56C109.663 63.856 109.467 64.124 109.203 64.364C108.939 64.604 108.627 64.792 108.267 64.928C107.915 65.056 107.535 65.12 107.127 65.12ZM104.823 61.58H109.443C109.411 61.124 109.287 60.724 109.071 60.38C108.863 60.036 108.587 59.768 108.243 59.576C107.907 59.376 107.535 59.276 107.127 59.276C106.719 59.276 106.347 59.376 106.011 59.576C105.675 59.768 105.399 60.04 105.183 60.392C104.975 60.736 104.855 61.132 104.823 61.58ZM113.522 65.12C113.01 65.12 112.534 65.036 112.094 64.868C111.654 64.7 111.274 64.444 110.954 64.1L111.29 63.524C111.642 63.852 111.994 64.092 112.346 64.244C112.706 64.388 113.086 64.46 113.486 64.46C113.974 64.46 114.37 64.364 114.674 64.172C114.978 63.972 115.13 63.688 115.13 63.32C115.13 63.072 115.054 62.884 114.902 62.756C114.758 62.62 114.546 62.512 114.266 62.432C113.994 62.344 113.666 62.252 113.282 62.156C112.85 62.036 112.486 61.912 112.19 61.784C111.902 61.648 111.682 61.48 111.53 61.28C111.386 61.072 111.314 60.804 111.314 60.476C111.314 60.068 111.414 59.732 111.614 59.468C111.822 59.196 112.102 58.992 112.454 58.856C112.814 58.712 113.214 58.64 113.654 58.64C114.134 58.64 114.558 58.716 114.926 58.868C115.294 59.02 115.594 59.232 115.826 59.504L115.43 60.056C115.206 59.8 114.938 59.612 114.626 59.492C114.322 59.364 113.982 59.3 113.606 59.3C113.35 59.3 113.106 59.336 112.874 59.408C112.642 59.472 112.45 59.584 112.298 59.744C112.154 59.896 112.082 60.108 112.082 60.38C112.082 60.604 112.138 60.78 112.25 60.908C112.362 61.028 112.53 61.132 112.754 61.22C112.978 61.3 113.254 61.388 113.582 61.484C114.054 61.612 114.466 61.744 114.818 61.88C115.17 62.008 115.442 62.176 115.634 62.384C115.826 62.592 115.922 62.884 115.922 63.26C115.922 63.844 115.702 64.3 115.262 64.628C114.822 64.956 114.242 65.12 113.522 65.12ZM117.271 65V58.748H118.087V65H117.271ZM117.271 57.44V56.24H118.087V57.44H117.271ZM122.392 65.084C121.968 65.084 121.576 64.996 121.216 64.82C120.856 64.644 120.544 64.408 120.28 64.112C120.024 63.808 119.824 63.464 119.68 63.08C119.536 62.696 119.464 62.3 119.464 61.892C119.464 61.452 119.532 61.04 119.668 60.656C119.812 60.264 120.012 59.916 120.268 59.612C120.532 59.308 120.84 59.072 121.192 58.904C121.544 58.728 121.936 58.64 122.368 58.64C122.904 58.64 123.368 58.776 123.76 59.048C124.16 59.32 124.496 59.656 124.768 60.056V58.748H125.5V65.024C125.5 65.6 125.36 66.084 125.08 66.476C124.808 66.876 124.436 67.176 123.964 67.376C123.5 67.576 122.992 67.676 122.44 67.676C121.728 67.676 121.152 67.548 120.712 67.292C120.272 67.036 119.912 66.692 119.632 66.26L120.136 65.864C120.384 66.256 120.712 66.548 121.12 66.74C121.536 66.932 121.976 67.028 122.44 67.028C122.848 67.028 123.22 66.952 123.556 66.8C123.9 66.656 124.172 66.436 124.372 66.14C124.58 65.844 124.684 65.472 124.684 65.024V63.788C124.444 64.18 124.116 64.496 123.7 64.736C123.284 64.968 122.848 65.084 122.392 65.084ZM122.62 64.4C122.868 64.4 123.104 64.356 123.328 64.268C123.56 64.18 123.772 64.064 123.964 63.92C124.156 63.768 124.316 63.6 124.444 63.416C124.572 63.232 124.652 63.044 124.684 62.852V60.92C124.564 60.616 124.392 60.348 124.168 60.116C123.944 59.876 123.688 59.692 123.4 59.564C123.12 59.428 122.828 59.36 122.524 59.36C122.172 59.36 121.856 59.436 121.576 59.588C121.304 59.732 121.072 59.928 120.88 60.176C120.696 60.416 120.552 60.688 120.448 60.992C120.344 61.296 120.292 61.6 120.292 61.904C120.292 62.24 120.352 62.56 120.472 62.864C120.592 63.16 120.756 63.428 120.964 63.668C121.18 63.9 121.428 64.08 121.708 64.208C121.996 64.336 122.3 64.4 122.62 64.4ZM132.558 65H131.742V61.508C131.742 60.772 131.634 60.236 131.418 59.9C131.202 59.556 130.862 59.384 130.398 59.384C130.078 59.384 129.762 59.464 129.45 59.624C129.138 59.776 128.862 59.988 128.622 60.26C128.39 60.524 128.222 60.828 128.118 61.172V65H127.302V58.748H128.046V60.164C128.214 59.86 128.434 59.596 128.706 59.372C128.978 59.14 129.286 58.96 129.63 58.832C129.974 58.704 130.33 58.64 130.698 58.64C131.042 58.64 131.334 58.704 131.574 58.832C131.814 58.96 132.006 59.144 132.15 59.384C132.294 59.616 132.398 59.9 132.462 60.236C132.526 60.564 132.558 60.932 132.558 61.34V65Z" fill="#F5F5F5"/>
</g>
<defs>
<filter id="filter0_d_356_129" x="0" y="0" width="190" height="102" filterUnits="userSpaceOnUse" color-interpolation-filters="sRGB">
<feFlood flood-opacity="0" result="BackgroundImageFix"/>
<feColorMatrix in="SourceAlpha" type="matrix" values="0 0 0 0 0 0 0 0 0 0 0 0 0 0 0 0 0 0 127 0" result="hardAlpha"/>
<feOffset dy="5"/>
<feGaussianBlur stdDeviation="2.5"/>
<feComposite in2="hardAlpha" operator="out"/>
<feColorMatrix type="matrix" values="0 0 0 0 0 0 0 0 0 0 0 0 0 0 0 0 0 0 0.25 0"/>
<feBlend mode="normal" in2="BackgroundImageFix" result="effect1_dropShadow_356_129"/>
<feBlend mode="normal" in="SourceGraphic" in2="effect1_dropShadow_356_129" result="shape"/>
</filter>
</defs>
</svg>
