<svg width="146" height="50" viewBox="0 0 146 50" fill="none" xmlns="http://www.w3.org/2000/svg">
<path fill-rule="evenodd" clip-rule="evenodd" d="M5 0C2.23858 0 0 2.23858 0 5V50H30C41.0457 50 50 41.0457 50 30V10C50 4.47715 45.5228 0 40 0H5ZM8 3C5.23858 3 3 5.23858 3 8V47H27C38.0457 47 47 38.0457 47 27V13C47 7.47715 42.5228 3 37 3H8Z" fill="#F5F5F5"/>
<path d="M9 14C9 11.2386 11.2386 9 14 9H31C36.5228 9 41 13.4772 41 19V21C41 32.0457 32.0457 41 21 41H9V14Z" fill="#F5F5F5"/>
<path d="M61.258 18V5.93H65.644C66.9587 5.93 68.058 6.202 68.942 6.746C69.826 7.27867 70.489 8.004 70.931 8.922C71.373 9.82867 71.594 10.8373 71.594 11.948C71.594 13.172 71.3503 14.2373 70.863 15.144C70.3757 16.0507 69.6843 16.7533 68.789 17.252C67.905 17.7507 66.8567 18 65.644 18H61.258ZM69.231 11.948C69.231 11.166 69.0893 10.4803 68.806 9.891C68.5227 9.29033 68.1147 8.82567 67.582 8.497C67.0493 8.157 66.4033 7.987 65.644 7.987H63.604V15.943H65.644C66.4147 15.943 67.0663 15.773 67.599 15.433C68.1317 15.0817 68.534 14.6057 68.806 14.005C69.0893 13.393 69.231 12.7073 69.231 11.948ZM82.0969 18V5.93H84.4429V18H82.0969ZM98.9122 5.93H101.292L105.729 18H103.315L102.193 14.991H97.9772L96.8722 18H94.4582L98.9122 5.93ZM101.768 13.342L100.102 8.361L98.3682 13.342H101.768ZM115.723 18V5.93H121.061C121.616 5.93 122.126 6.04333 122.591 6.27C123.067 6.49667 123.475 6.80267 123.815 7.188C124.166 7.57333 124.433 8.004 124.614 8.48C124.807 8.956 124.903 9.44333 124.903 9.942C124.903 10.452 124.812 10.945 124.631 11.421C124.461 11.8857 124.212 12.2937 123.883 12.645C123.554 12.9963 123.169 13.2683 122.727 13.461L125.481 18H122.897L120.415 13.954H118.069V18H115.723ZM118.069 11.897H121.01C121.305 11.897 121.565 11.812 121.792 11.642C122.019 11.4607 122.2 11.2227 122.336 10.928C122.472 10.6333 122.54 10.3047 122.54 9.942C122.54 9.55667 122.461 9.22233 122.302 8.939C122.143 8.64433 121.939 8.412 121.69 8.242C121.452 8.072 121.191 7.987 120.908 7.987H118.069V11.897ZM138.98 5.93H141.36L145.797 18H143.383L142.261 14.991H138.045L136.94 18H134.526L138.98 5.93ZM141.836 13.342L140.17 8.361L138.436 13.342H141.836Z" fill="#F5F5F5"/>
<path d="M60.396 30.2C60.396 29.808 60.508 29.472 60.732 29.192C60.956 28.904 61.264 28.684 61.656 28.532C62.056 28.372 62.516 28.292 63.036 28.292C63.34 28.292 63.656 28.316 63.984 28.364C64.312 28.412 64.604 28.484 64.86 28.58V28.052C64.86 27.524 64.704 27.104 64.392 26.792C64.08 26.48 63.648 26.324 63.096 26.324C62.76 26.324 62.428 26.388 62.1 26.516C61.78 26.636 61.444 26.816 61.092 27.056L60.78 26.48C61.188 26.2 61.588 25.992 61.98 25.856C62.372 25.712 62.772 25.64 63.18 25.64C63.948 25.64 64.556 25.86 65.004 26.3C65.452 26.74 65.676 27.348 65.676 28.124V31.016C65.676 31.128 65.7 31.212 65.748 31.268C65.796 31.316 65.872 31.344 65.976 31.352V32C65.888 32.008 65.812 32.016 65.748 32.024C65.684 32.032 65.636 32.032 65.604 32.024C65.404 32.016 65.252 31.952 65.148 31.832C65.044 31.712 64.988 31.584 64.98 31.448L64.968 30.992C64.688 31.352 64.324 31.632 63.876 31.832C63.428 32.024 62.972 32.12 62.508 32.12C62.108 32.12 61.744 32.036 61.416 31.868C61.096 31.692 60.844 31.46 60.66 31.172C60.484 30.876 60.396 30.552 60.396 30.2ZM64.584 30.68C64.672 30.568 64.74 30.46 64.788 30.356C64.836 30.252 64.86 30.16 64.86 30.08V29.168C64.588 29.064 64.304 28.984 64.008 28.928C63.72 28.872 63.428 28.844 63.132 28.844C62.548 28.844 62.076 28.96 61.716 29.192C61.356 29.424 61.176 29.74 61.176 30.14C61.176 30.372 61.236 30.592 61.356 30.8C61.476 31 61.652 31.168 61.884 31.304C62.116 31.432 62.388 31.496 62.7 31.496C63.092 31.496 63.456 31.42 63.792 31.268C64.136 31.116 64.4 30.92 64.584 30.68ZM70.5591 26.468C70.0151 26.484 69.5351 26.636 69.1191 26.924C68.7111 27.212 68.4231 27.608 68.2551 28.112V32H67.4391V25.748H68.2071V27.248C68.4231 26.808 68.7071 26.452 69.0591 26.18C69.4191 25.908 69.7991 25.756 70.1991 25.724C70.2791 25.716 70.3471 25.712 70.4031 25.712C70.4671 25.712 70.5191 25.716 70.5591 25.724V26.468ZM74.1589 32.12C73.7029 32.12 73.2829 32.036 72.8989 31.868C72.5229 31.692 72.1909 31.452 71.9029 31.148C71.6229 30.844 71.4029 30.496 71.2429 30.104C71.0909 29.712 71.0149 29.296 71.0149 28.856C71.0149 28.264 71.1469 27.724 71.4109 27.236C71.6749 26.748 72.0429 26.36 72.5149 26.072C72.9869 25.784 73.5309 25.64 74.1469 25.64C74.7309 25.64 75.2469 25.776 75.6949 26.048C76.1429 26.312 76.4749 26.672 76.6909 27.128L75.8989 27.38C75.7229 27.06 75.4749 26.812 75.1549 26.636C74.8429 26.452 74.4949 26.36 74.1109 26.36C73.6949 26.36 73.3149 26.468 72.9709 26.684C72.6269 26.9 72.3509 27.196 72.1429 27.572C71.9429 27.948 71.8429 28.376 71.8429 28.856C71.8429 29.328 71.9469 29.756 72.1549 30.14C72.3629 30.524 72.6389 30.832 72.9829 31.064C73.3269 31.288 73.7069 31.4 74.1229 31.4C74.3949 31.4 74.6549 31.352 74.9029 31.256C75.1589 31.16 75.3789 31.032 75.5629 30.872C75.7549 30.704 75.8829 30.524 75.9469 30.332L76.7509 30.572C76.6389 30.868 76.4509 31.136 76.1869 31.376C75.9309 31.608 75.6269 31.792 75.2749 31.928C74.9309 32.056 74.5589 32.12 74.1589 32.12ZM83.2888 32H82.4728V28.508C82.4728 27.804 82.3488 27.276 82.1008 26.924C81.8528 26.564 81.4968 26.384 81.0328 26.384C80.7288 26.384 80.4248 26.464 80.1208 26.624C79.8248 26.776 79.5608 26.988 79.3288 27.26C79.1048 27.524 78.9448 27.828 78.8488 28.172V32H78.0328V23.24H78.8488V27.164C79.0968 26.7 79.4408 26.332 79.8808 26.06C80.3288 25.78 80.8048 25.64 81.3088 25.64C81.6688 25.64 81.9728 25.704 82.2208 25.832C82.4768 25.96 82.6808 26.148 82.8328 26.396C82.9928 26.636 83.1088 26.92 83.1808 27.248C83.2528 27.568 83.2888 27.932 83.2888 28.34V32ZM85.0289 32V25.748H85.8449V32H85.0289ZM85.0289 24.44V23.24H85.8449V24.44H85.0289ZM90.6422 31.7C90.5782 31.724 90.4782 31.768 90.3422 31.832C90.2062 31.896 90.0422 31.952 89.8502 32C89.6582 32.048 89.4502 32.072 89.2262 32.072C88.9942 32.072 88.7742 32.028 88.5662 31.94C88.3662 31.852 88.2062 31.72 88.0862 31.544C87.9662 31.36 87.9062 31.136 87.9062 30.872V26.396H87.0422V25.748H87.9062V23.636H88.7222V25.748H90.1622V26.396H88.7222V30.644C88.7382 30.868 88.8182 31.036 88.9622 31.148C89.1142 31.26 89.2862 31.316 89.4782 31.316C89.7022 31.316 89.9062 31.28 90.0902 31.208C90.2742 31.128 90.3862 31.072 90.4262 31.04L90.6422 31.7ZM94.2563 32.12C93.8083 32.12 93.3923 32.036 93.0083 31.868C92.6243 31.692 92.2923 31.456 92.0123 31.16C91.7323 30.856 91.5123 30.508 91.3523 30.116C91.2003 29.724 91.1243 29.304 91.1243 28.856C91.1243 28.272 91.2563 27.736 91.5203 27.248C91.7923 26.76 92.1643 26.372 92.6363 26.084C93.1083 25.788 93.6443 25.64 94.2443 25.64C94.8603 25.64 95.3963 25.788 95.8523 26.084C96.3163 26.38 96.6803 26.772 96.9443 27.26C97.2083 27.74 97.3403 28.268 97.3403 28.844C97.3403 28.908 97.3403 28.972 97.3403 29.036C97.3403 29.092 97.3363 29.136 97.3283 29.168H91.9763C92.0163 29.616 92.1403 30.016 92.3483 30.368C92.5643 30.712 92.8403 30.988 93.1763 31.196C93.5203 31.396 93.8923 31.496 94.2923 31.496C94.7003 31.496 95.0843 31.392 95.4443 31.184C95.8123 30.976 96.0683 30.704 96.2123 30.368L96.9203 30.56C96.7923 30.856 96.5963 31.124 96.3323 31.364C96.0683 31.604 95.7563 31.792 95.3963 31.928C95.0443 32.056 94.6643 32.12 94.2563 32.12ZM91.9523 28.58H96.5723C96.5403 28.124 96.4163 27.724 96.2003 27.38C95.9923 27.036 95.7163 26.768 95.3723 26.576C95.0363 26.376 94.6643 26.276 94.2563 26.276C93.8483 26.276 93.4763 26.376 93.1403 26.576C92.8043 26.768 92.5283 27.04 92.3123 27.392C92.1043 27.736 91.9843 28.132 91.9523 28.58ZM101.311 32.12C100.855 32.12 100.435 32.036 100.051 31.868C99.6752 31.692 99.3432 31.452 99.0552 31.148C98.7752 30.844 98.5552 30.496 98.3952 30.104C98.2432 29.712 98.1672 29.296 98.1672 28.856C98.1672 28.264 98.2992 27.724 98.5632 27.236C98.8272 26.748 99.1952 26.36 99.6672 26.072C100.139 25.784 100.683 25.64 101.299 25.64C101.883 25.64 102.399 25.776 102.847 26.048C103.295 26.312 103.627 26.672 103.843 27.128L103.051 27.38C102.875 27.06 102.627 26.812 102.307 26.636C101.995 26.452 101.647 26.36 101.263 26.36C100.847 26.36 100.467 26.468 100.123 26.684C99.7792 26.9 99.5032 27.196 99.2952 27.572C99.0952 27.948 98.9952 28.376 98.9952 28.856C98.9952 29.328 99.0992 29.756 99.3072 30.14C99.5152 30.524 99.7912 30.832 100.135 31.064C100.479 31.288 100.859 31.4 101.275 31.4C101.547 31.4 101.807 31.352 102.055 31.256C102.311 31.16 102.531 31.032 102.715 30.872C102.907 30.704 103.035 30.524 103.099 30.332L103.903 30.572C103.791 30.868 103.603 31.136 103.339 31.376C103.083 31.608 102.779 31.792 102.427 31.928C102.083 32.056 101.711 32.12 101.311 32.12ZM110.441 32H109.625V28.508C109.625 27.804 109.501 27.276 109.253 26.924C109.005 26.564 108.649 26.384 108.185 26.384C107.881 26.384 107.577 26.464 107.273 26.624C106.977 26.776 106.713 26.988 106.481 27.26C106.257 27.524 106.097 27.828 106.001 28.172V32H105.185V23.24H106.001V27.164C106.249 26.7 106.593 26.332 107.033 26.06C107.481 25.78 107.957 25.64 108.461 25.64C108.821 25.64 109.125 25.704 109.373 25.832C109.629 25.96 109.833 26.148 109.985 26.396C110.145 26.636 110.261 26.92 110.333 27.248C110.405 27.568 110.441 27.932 110.441 28.34V32ZM115.123 31.7C115.059 31.724 114.959 31.768 114.823 31.832C114.687 31.896 114.523 31.952 114.331 32C114.139 32.048 113.931 32.072 113.707 32.072C113.475 32.072 113.255 32.028 113.047 31.94C112.847 31.852 112.687 31.72 112.567 31.544C112.447 31.36 112.387 31.136 112.387 30.872V26.396H111.523V25.748H112.387V23.636H113.203V25.748H114.643V26.396H113.203V30.644C113.219 30.868 113.299 31.036 113.443 31.148C113.595 31.26 113.767 31.316 113.959 31.316C114.183 31.316 114.387 31.28 114.571 31.208C114.755 31.128 114.867 31.072 114.907 31.04L115.123 31.7ZM116.082 29.42V25.748H116.898V29.276C116.898 29.988 117.018 30.52 117.258 30.872C117.506 31.224 117.87 31.4 118.35 31.4C118.67 31.4 118.978 31.332 119.274 31.196C119.578 31.052 119.846 30.852 120.078 30.596C120.31 30.332 120.486 30.028 120.606 29.684V25.748H121.422V31.016C121.422 31.128 121.446 31.212 121.494 31.268C121.542 31.316 121.614 31.344 121.71 31.352V32C121.614 32.008 121.538 32.012 121.482 32.012C121.426 32.02 121.374 32.024 121.326 32.024C121.166 32.008 121.026 31.944 120.906 31.832C120.794 31.72 120.734 31.584 120.726 31.424L120.702 30.584C120.43 31.064 120.058 31.44 119.586 31.712C119.122 31.984 118.618 32.12 118.074 32.12C117.418 32.12 116.922 31.892 116.586 31.436C116.25 30.98 116.082 30.308 116.082 29.42ZM125.967 32.12C125.519 32.12 125.103 32.036 124.719 31.868C124.335 31.692 124.003 31.456 123.723 31.16C123.443 30.856 123.223 30.508 123.063 30.116C122.911 29.724 122.835 29.304 122.835 28.856C122.835 28.272 122.967 27.736 123.231 27.248C123.503 26.76 123.875 26.372 124.347 26.084C124.819 25.788 125.355 25.64 125.955 25.64C126.571 25.64 127.107 25.788 127.563 26.084C128.027 26.38 128.391 26.772 128.655 27.26C128.919 27.74 129.051 28.268 129.051 28.844C129.051 28.908 129.051 28.972 129.051 29.036C129.051 29.092 129.047 29.136 129.039 29.168H123.687C123.727 29.616 123.851 30.016 124.059 30.368C124.275 30.712 124.551 30.988 124.887 31.196C125.231 31.396 125.603 31.496 126.003 31.496C126.411 31.496 126.795 31.392 127.155 31.184C127.523 30.976 127.779 30.704 127.923 30.368L128.631 30.56C128.503 30.856 128.307 31.124 128.043 31.364C127.779 31.604 127.467 31.792 127.107 31.928C126.755 32.056 126.375 32.12 125.967 32.12ZM123.663 28.58H128.283C128.251 28.124 128.127 27.724 127.911 27.38C127.703 27.036 127.427 26.768 127.083 26.576C126.747 26.376 126.375 26.276 125.967 26.276C125.559 26.276 125.187 26.376 124.851 26.576C124.515 26.768 124.239 27.04 124.023 27.392C123.815 27.736 123.695 28.132 123.663 28.58ZM66.852 44L62.604 39.524C62.26 39.156 61.984 38.844 61.776 38.588C61.568 38.324 61.42 38.088 61.332 37.88C61.244 37.664 61.2 37.452 61.2 37.244C61.2 36.892 61.292 36.576 61.476 36.296C61.668 36.016 61.924 35.792 62.244 35.624C62.572 35.456 62.936 35.372 63.336 35.372C63.712 35.372 64.048 35.444 64.344 35.588C64.648 35.724 64.888 35.92 65.064 36.176C65.24 36.424 65.328 36.716 65.328 37.052C65.328 37.412 65.224 37.736 65.016 38.024C64.816 38.304 64.552 38.568 64.224 38.816C63.904 39.056 63.548 39.3 63.156 39.548C62.828 39.772 62.524 40 62.244 40.232C61.972 40.456 61.756 40.696 61.596 40.952C61.436 41.208 61.356 41.5 61.356 41.828C61.356 42.18 61.456 42.48 61.656 42.728C61.856 42.968 62.108 43.152 62.412 43.28C62.724 43.4 63.044 43.46 63.372 43.46C63.804 43.46 64.2 43.364 64.56 43.172C64.928 42.972 65.248 42.7 65.52 42.356C65.792 42.004 66 41.604 66.144 41.156C66.296 40.708 66.372 40.232 66.372 39.728H67.068C67.068 40.336 66.972 40.908 66.78 41.444C66.588 41.972 66.32 42.436 65.976 42.836C65.64 43.236 65.24 43.552 64.776 43.784C64.32 44.008 63.824 44.12 63.288 44.12C62.792 44.12 62.336 44.024 61.92 43.832C61.504 43.632 61.172 43.36 60.924 43.016C60.684 42.672 60.564 42.268 60.564 41.804C60.564 41.372 60.664 40.996 60.864 40.676C61.072 40.348 61.336 40.056 61.656 39.8C61.984 39.536 62.328 39.288 62.688 39.056C63.056 38.816 63.38 38.596 63.66 38.396C63.948 38.188 64.172 37.98 64.332 37.772C64.492 37.556 64.572 37.324 64.572 37.076C64.572 36.764 64.456 36.508 64.224 36.308C63.992 36.108 63.696 36.008 63.336 36.008C63.072 36.008 62.836 36.064 62.628 36.176C62.42 36.288 62.256 36.436 62.136 36.62C62.016 36.804 61.956 37.004 61.956 37.22C61.956 37.356 61.988 37.5 62.052 37.652C62.116 37.796 62.24 37.98 62.424 38.204C62.608 38.42 62.872 38.708 63.216 39.068L67.932 44H66.852ZM71.5425 40.892C71.5425 40.3 71.6625 39.76 71.9025 39.272C72.1505 38.776 72.4905 38.38 72.9225 38.084C73.3545 37.788 73.8465 37.64 74.3985 37.64C74.9185 37.64 75.3825 37.78 75.7905 38.06C76.2065 38.332 76.5305 38.664 76.7625 39.056V35.24H77.5785V43.016C77.5785 43.128 77.6025 43.212 77.6505 43.268C77.6985 43.316 77.7705 43.344 77.8665 43.352V44C77.7065 44.024 77.5825 44.032 77.4945 44.024C77.3265 44.016 77.1785 43.948 77.0505 43.82C76.9225 43.692 76.8585 43.552 76.8585 43.4V42.788C76.6105 43.196 76.2745 43.52 75.8505 43.76C75.4265 44 74.9865 44.12 74.5305 44.12C74.0985 44.12 73.6985 44.032 73.3305 43.856C72.9705 43.68 72.6545 43.44 72.3825 43.136C72.1185 42.832 71.9105 42.488 71.7585 42.104C71.6145 41.712 71.5425 41.308 71.5425 40.892ZM76.7625 41.852V39.92C76.6585 39.632 76.4905 39.372 76.2585 39.14C76.0265 38.9 75.7625 38.712 75.4665 38.576C75.1785 38.432 74.8905 38.36 74.6025 38.36C74.2665 38.36 73.9625 38.432 73.6905 38.576C73.4185 38.712 73.1825 38.9 72.9825 39.14C72.7905 39.38 72.6425 39.652 72.5385 39.956C72.4345 40.26 72.3825 40.572 72.3825 40.892C72.3825 41.228 72.4385 41.548 72.5505 41.852C72.6705 42.156 72.8385 42.428 73.0545 42.668C73.2705 42.9 73.5185 43.08 73.7985 43.208C74.0785 43.336 74.3825 43.4 74.7105 43.4C74.9185 43.4 75.1345 43.36 75.3585 43.28C75.5825 43.2 75.7945 43.092 75.9945 42.956C76.2025 42.812 76.3745 42.644 76.5105 42.452C76.6465 42.26 76.7305 42.06 76.7625 41.852ZM82.1273 44.12C81.6793 44.12 81.2633 44.036 80.8793 43.868C80.4953 43.692 80.1633 43.456 79.8833 43.16C79.6033 42.856 79.3833 42.508 79.2233 42.116C79.0713 41.724 78.9953 41.304 78.9953 40.856C78.9953 40.272 79.1273 39.736 79.3913 39.248C79.6633 38.76 80.0353 38.372 80.5073 38.084C80.9793 37.788 81.5153 37.64 82.1153 37.64C82.7313 37.64 83.2673 37.788 83.7233 38.084C84.1873 38.38 84.5513 38.772 84.8153 39.26C85.0793 39.74 85.2113 40.268 85.2113 40.844C85.2113 40.908 85.2113 40.972 85.2113 41.036C85.2113 41.092 85.2073 41.136 85.1993 41.168H79.8473C79.8873 41.616 80.0113 42.016 80.2193 42.368C80.4353 42.712 80.7113 42.988 81.0473 43.196C81.3913 43.396 81.7633 43.496 82.1633 43.496C82.5713 43.496 82.9553 43.392 83.3153 43.184C83.6833 42.976 83.9393 42.704 84.0833 42.368L84.7913 42.56C84.6633 42.856 84.4673 43.124 84.2033 43.364C83.9393 43.604 83.6273 43.792 83.2673 43.928C82.9153 44.056 82.5353 44.12 82.1273 44.12ZM79.8233 40.58H84.4433C84.4113 40.124 84.2873 39.724 84.0713 39.38C83.8633 39.036 83.5873 38.768 83.2433 38.576C82.9073 38.376 82.5353 38.276 82.1273 38.276C81.7193 38.276 81.3473 38.376 81.0113 38.576C80.6753 38.768 80.3993 39.04 80.1833 39.392C79.9753 39.736 79.8553 40.132 79.8233 40.58ZM88.5223 44.12C88.0103 44.12 87.5343 44.036 87.0943 43.868C86.6543 43.7 86.2743 43.444 85.9543 43.1L86.2903 42.524C86.6423 42.852 86.9943 43.092 87.3463 43.244C87.7063 43.388 88.0863 43.46 88.4863 43.46C88.9743 43.46 89.3703 43.364 89.6743 43.172C89.9783 42.972 90.1303 42.688 90.1303 42.32C90.1303 42.072 90.0543 41.884 89.9023 41.756C89.7583 41.62 89.5463 41.512 89.2663 41.432C88.9943 41.344 88.6663 41.252 88.2823 41.156C87.8503 41.036 87.4863 40.912 87.1903 40.784C86.9023 40.648 86.6823 40.48 86.5303 40.28C86.3863 40.072 86.3143 39.804 86.3143 39.476C86.3143 39.068 86.4143 38.732 86.6143 38.468C86.8223 38.196 87.1023 37.992 87.4543 37.856C87.8143 37.712 88.2143 37.64 88.6543 37.64C89.1343 37.64 89.5583 37.716 89.9263 37.868C90.2943 38.02 90.5943 38.232 90.8263 38.504L90.4303 39.056C90.2063 38.8 89.9383 38.612 89.6263 38.492C89.3223 38.364 88.9823 38.3 88.6063 38.3C88.3503 38.3 88.1063 38.336 87.8743 38.408C87.6423 38.472 87.4503 38.584 87.2983 38.744C87.1543 38.896 87.0823 39.108 87.0823 39.38C87.0823 39.604 87.1383 39.78 87.2503 39.908C87.3623 40.028 87.5303 40.132 87.7543 40.22C87.9783 40.3 88.2543 40.388 88.5823 40.484C89.0543 40.612 89.4663 40.744 89.8183 40.88C90.1703 41.008 90.4423 41.176 90.6343 41.384C90.8263 41.592 90.9223 41.884 90.9223 42.26C90.9223 42.844 90.7023 43.3 90.2623 43.628C89.8223 43.956 89.2423 44.12 88.5223 44.12ZM92.2711 44V37.748H93.0871V44H92.2711ZM92.2711 36.44V35.24H93.0871V36.44H92.2711ZM97.3924 44.084C96.9684 44.084 96.5764 43.996 96.2164 43.82C95.8564 43.644 95.5444 43.408 95.2804 43.112C95.0244 42.808 94.8244 42.464 94.6804 42.08C94.5364 41.696 94.4644 41.3 94.4644 40.892C94.4644 40.452 94.5324 40.04 94.6684 39.656C94.8124 39.264 95.0124 38.916 95.2684 38.612C95.5324 38.308 95.8404 38.072 96.1924 37.904C96.5444 37.728 96.9364 37.64 97.3684 37.64C97.9044 37.64 98.3684 37.776 98.7604 38.048C99.1604 38.32 99.4964 38.656 99.7684 39.056V37.748H100.5V44.024C100.5 44.6 100.36 45.084 100.08 45.476C99.8084 45.876 99.4364 46.176 98.9644 46.376C98.5004 46.576 97.9924 46.676 97.4404 46.676C96.7284 46.676 96.1524 46.548 95.7124 46.292C95.2724 46.036 94.9124 45.692 94.6324 45.26L95.1364 44.864C95.3844 45.256 95.7124 45.548 96.1204 45.74C96.5364 45.932 96.9764 46.028 97.4404 46.028C97.8484 46.028 98.2204 45.952 98.5564 45.8C98.9004 45.656 99.1724 45.436 99.3724 45.14C99.5804 44.844 99.6844 44.472 99.6844 44.024V42.788C99.4444 43.18 99.1164 43.496 98.7004 43.736C98.2844 43.968 97.8484 44.084 97.3924 44.084ZM97.6204 43.4C97.8684 43.4 98.1044 43.356 98.3284 43.268C98.5604 43.18 98.7724 43.064 98.9644 42.92C99.1564 42.768 99.3164 42.6 99.4444 42.416C99.5724 42.232 99.6524 42.044 99.6844 41.852V39.92C99.5644 39.616 99.3924 39.348 99.1684 39.116C98.9444 38.876 98.6884 38.692 98.4004 38.564C98.1204 38.428 97.8284 38.36 97.5244 38.36C97.1724 38.36 96.8564 38.436 96.5764 38.588C96.3044 38.732 96.0724 38.928 95.8804 39.176C95.6964 39.416 95.5524 39.688 95.4484 39.992C95.3444 40.296 95.2924 40.6 95.2924 40.904C95.2924 41.24 95.3524 41.56 95.4724 41.864C95.5924 42.16 95.7564 42.428 95.9644 42.668C96.1804 42.9 96.4284 43.08 96.7084 43.208C96.9964 43.336 97.3004 43.4 97.6204 43.4ZM107.558 44H106.742V40.508C106.742 39.772 106.634 39.236 106.418 38.9C106.202 38.556 105.862 38.384 105.398 38.384C105.078 38.384 104.762 38.464 104.45 38.624C104.138 38.776 103.862 38.988 103.622 39.26C103.39 39.524 103.222 39.828 103.118 40.172V44H102.302V37.748H103.046V39.164C103.214 38.86 103.434 38.596 103.706 38.372C103.978 38.14 104.286 37.96 104.63 37.832C104.974 37.704 105.33 37.64 105.698 37.64C106.042 37.64 106.334 37.704 106.574 37.832C106.814 37.96 107.006 38.144 107.15 38.384C107.294 38.616 107.398 38.9 107.462 39.236C107.526 39.564 107.558 39.932 107.558 40.34V44Z" fill="#F5F5F5"/>
</svg>
