<svg width="16" height="14" viewBox="0 0 16 14" fill="none" xmlns="http://www.w3.org/2000/svg">
<path d="M14.3554 3.8473C14.3655 3.9848 14.3655 4.12232 14.3655 4.25981C14.3655 8.45354 11.066 13.2857 5.03555 13.2857C3.17767 13.2857 1.45179 12.7651 0 11.8616C0.26397 11.8911 0.517752 11.9009 0.791878 11.9009C2.32485 11.9009 3.73605 11.4 4.86296 10.5455C3.42133 10.5161 2.2132 9.60268 1.79694 8.34553C2.00001 8.37497 2.20304 8.39462 2.41626 8.39462C2.71067 8.39462 3.00511 8.35532 3.2792 8.28661C1.77666 7.99194 0.649721 6.71517 0.649721 5.1732V5.13393C1.08625 5.36965 1.59391 5.51697 2.13195 5.53659C1.24869 4.96693 0.670034 3.99462 0.670034 2.89461C0.670034 2.30534 0.832441 1.76516 1.11672 1.29373C2.73095 3.21873 5.15736 4.47585 7.87816 4.61337C7.82741 4.37766 7.79694 4.13215 7.79694 3.8866C7.79694 2.13837 9.25888 0.714279 11.0761 0.714279C12.0203 0.714279 12.8731 1.09731 13.4721 1.71606C14.2132 1.57857 14.9238 1.31338 15.5533 0.949995C15.3096 1.68662 14.7919 2.30537 14.1117 2.6982C14.7716 2.62948 15.4112 2.45266 16 2.20715C15.5534 2.83569 14.995 3.39549 14.3554 3.8473Z" fill="white" fill-opacity="0.7"/>
</svg>
