<svg width="16" height="10" viewBox="0 0 16 10" fill="none" xmlns="http://www.w3.org/2000/svg">
<path d="M15.6354 0.850997C15.7453 0.475997 15.6354 0.199997 15.1066 0.199997H13.3572C12.9116 0.199997 12.7067 0.436997 12.5968 0.700997C12.5968 0.700997 11.7057 2.894 10.4463 4.316C10.0394 4.727 9.85229 4.859 9.62952 4.859C9.51962 4.859 9.35032 4.727 9.35032 4.352V0.850997C9.35032 0.400997 9.22557 0.199997 8.85726 0.199997H6.10682C5.82761 0.199997 5.66128 0.409997 5.66128 0.604997C5.66128 1.031 6.29097 1.13 6.35632 2.33V4.934C6.35632 5.504 6.25533 5.609 6.03256 5.609C5.43851 5.609 3.99497 3.407 3.13955 0.886997C2.96727 0.397997 2.79797 0.199997 2.34946 0.199997H0.599989C0.100988 0.199997 0 0.436997 0 0.700997C0 1.169 0.594048 3.494 2.76529 6.566C4.2118 8.663 6.24939 9.8 8.10282 9.8C9.21666 9.8 9.35329 9.548 9.35329 9.113C9.35329 7.109 9.2523 6.92 9.81071 6.92C10.0691 6.92 10.5147 7.052 11.5542 8.063C12.7423 9.263 12.9384 9.8 13.6037 9.8H15.3532C15.8522 9.8 16.1047 9.548 15.9591 9.05C15.6264 8.003 13.378 5.849 13.277 5.705C13.0186 5.369 13.0928 5.219 13.277 4.919C13.2799 4.916 15.4156 1.88 15.6354 0.850997Z" fill="white" fill-opacity="0.7"/>
</svg>
